<mxfile host="65bd71144e">
    <diagram id="dKJ2mVlq1FmPsi6Axe67" name="Page-1">
        <mxGraphModel dx="1251" dy="991" grid="1" gridSize="10" guides="1" tooltips="1" connect="1" arrows="1" fold="1" page="1" pageScale="1" pageWidth="850" pageHeight="1100" math="0" shadow="0">
            <root>
                <mxCell id="0"/>
                <mxCell id="1" parent="0"/>
                <mxCell id="33" style="edgeStyle=none;html=1;exitX=1;exitY=0.5;exitDx=0;exitDy=0;strokeColor=#FF0000;strokeWidth=3;fontSize=17;fontColor=#000000;endSize=6;" edge="1" parent="1" source="6" target="20">
                    <mxGeometry relative="1" as="geometry"/>
                </mxCell>
                <mxCell id="6" value="&lt;font style=&quot;font-size: 18px;&quot;&gt;1st iteration&lt;/font&gt;" style="text;html=1;strokeColor=none;fillColor=none;align=center;verticalAlign=middle;whiteSpace=wrap;rounded=0;fontSize=18;fontStyle=4" vertex="1" parent="1">
                    <mxGeometry x="490" y="172.5" width="170" height="50" as="geometry"/>
                </mxCell>
                <mxCell id="9" value="&lt;font style=&quot;font-size: 18px;&quot; color=&quot;#000000&quot;&gt;Input:&lt;/font&gt;" style="rounded=1;whiteSpace=wrap;html=1;strokeWidth=0;fontSize=16;fillColor=#fff2cc;strokeColor=#d6b656;" vertex="1" parent="1">
                    <mxGeometry x="130" y="240" width="70" height="40" as="geometry"/>
                </mxCell>
                <mxCell id="10" value="&lt;div style=&quot;&quot;&gt;&lt;span style=&quot;font-size: 15px; background-color: rgba(0, 10, 32, 0.03); font-family: Menlo, sans-serif;&quot;&gt;nums = [2,7,11,15]&lt;/span&gt;&lt;br&gt;&lt;/div&gt;" style="rounded=1;whiteSpace=wrap;html=1;strokeWidth=0;fontSize=18;align=center;fillColor=#cdeb8b;spacing=0;labelPosition=center;verticalLabelPosition=middle;verticalAlign=middle;strokeColor=#36393d;fontColor=#000000;" vertex="1" parent="1">
                    <mxGeometry x="212.5" y="220" width="155" height="40" as="geometry"/>
                </mxCell>
                <mxCell id="11" value="&lt;div style=&quot;font-size: 16px;&quot;&gt;&lt;span style=&quot;font-size: 16px; background-color: rgba(0, 10, 32, 0.03); font-family: Menlo, sans-serif;&quot;&gt;t&lt;/span&gt;&lt;span style=&quot;background-color: rgba(0, 10, 32, 0.03); font-family: Menlo, sans-serif; font-size: 16px; text-align: start;&quot;&gt;arget = 9&lt;/span&gt;&lt;br style=&quot;font-size: 16px;&quot;&gt;&lt;/div&gt;" style="rounded=1;whiteSpace=wrap;html=1;strokeWidth=0;fontSize=16;align=center;fillColor=#cdeb8b;spacing=0;labelPosition=center;verticalLabelPosition=middle;verticalAlign=middle;strokeColor=#36393d;fontStyle=0;fontColor=#000000;" vertex="1" parent="1">
                    <mxGeometry x="241.25" y="270" width="97.5" height="40" as="geometry"/>
                </mxCell>
                <mxCell id="17" style="edgeStyle=none;html=1;exitX=0.25;exitY=1;exitDx=0;exitDy=0;entryX=0.25;entryY=0;entryDx=0;entryDy=0;strokeColor=#FF0000;strokeWidth=3;fontSize=16;fontColor=#FFFFFF;endSize=6;" edge="1" parent="1" source="12" target="15">
                    <mxGeometry relative="1" as="geometry"/>
                </mxCell>
                <mxCell id="12" value="(nums[0] = 2) in o" style="shape=process;whiteSpace=wrap;html=1;backgroundOutline=1;strokeWidth=0;fontSize=16;fillColor=#cdeb8b;strokeColor=#36393d;fontColor=#000000;" vertex="1" parent="1">
                    <mxGeometry x="440" y="237.5" width="160" height="60" as="geometry"/>
                </mxCell>
                <mxCell id="13" value="return [i, o[nums[i]]]" style="shape=parallelogram;perimeter=parallelogramPerimeter;whiteSpace=wrap;html=1;fixedSize=1;strokeWidth=0;fontSize=16;fillColor=#d80073;fontColor=#000000;strokeColor=#A50040;" vertex="1" parent="1">
                    <mxGeometry x="490" y="307.5" width="200" height="60" as="geometry"/>
                </mxCell>
                <mxCell id="25" style="edgeStyle=none;html=1;exitX=1;exitY=0.5;exitDx=0;exitDy=0;entryX=0;entryY=0.5;entryDx=0;entryDy=0;strokeColor=#FF0000;strokeWidth=3;fontSize=16;fontColor=#FFFFFF;endSize=6;" edge="1" parent="1" source="15" target="19">
                    <mxGeometry relative="1" as="geometry"/>
                </mxCell>
                <mxCell id="15" value="o[9-2] = 0" style="shape=process;whiteSpace=wrap;html=1;backgroundOutline=1;strokeWidth=0;fontSize=16;fillColor=#cdeb8b;strokeColor=#36393d;fontColor=#000000;" vertex="1" parent="1">
                    <mxGeometry x="440" y="387.5" width="160" height="60" as="geometry"/>
                </mxCell>
                <mxCell id="18" value="&lt;font style=&quot;font-size: 17px;&quot; color=&quot;#000000&quot;&gt;7:0&lt;br&gt;&lt;br&gt;&lt;br&gt;&lt;br&gt;&lt;/font&gt;" style="rounded=1;whiteSpace=wrap;html=1;fillColor=#cdeb8b;strokeColor=#36393d;fontSize=16;labelPosition=center;verticalLabelPosition=middle;align=center;verticalAlign=middle;horizontal=1;" vertex="1" parent="1">
                    <mxGeometry x="660" y="397.5" width="70" height="110" as="geometry"/>
                </mxCell>
                <mxCell id="19" value="&lt;font style=&quot;font-size: 20px;&quot;&gt;O&lt;/font&gt;" style="text;html=1;strokeColor=none;fillColor=none;align=center;verticalAlign=middle;whiteSpace=wrap;rounded=0;perimeterSpacing=0;strokeWidth=0;" vertex="1" parent="1">
                    <mxGeometry x="630" y="402.5" width="30" height="30" as="geometry"/>
                </mxCell>
                <mxCell id="20" value="&lt;font style=&quot;font-size: 18px;&quot;&gt;2nd&amp;nbsp;iteration&lt;/font&gt;" style="text;html=1;strokeColor=none;fillColor=none;align=center;verticalAlign=middle;whiteSpace=wrap;rounded=0;fontSize=18;fontStyle=4" vertex="1" parent="1">
                    <mxGeometry x="830" y="180" width="140" height="40" as="geometry"/>
                </mxCell>
                <mxCell id="23" style="edgeStyle=none;html=1;exitX=0.25;exitY=1;exitDx=0;exitDy=0;entryX=0;entryY=0.5;entryDx=0;entryDy=0;strokeColor=#FF0000;strokeWidth=3;fontSize=16;fontColor=#FFFFFF;endSize=6;" edge="1" parent="1" source="21" target="22">
                    <mxGeometry relative="1" as="geometry">
                        <Array as="points">
                            <mxPoint x="820" y="340"/>
                        </Array>
                    </mxGeometry>
                </mxCell>
                <mxCell id="21" value="(nums[1] = 7) in o" style="shape=process;whiteSpace=wrap;html=1;backgroundOutline=1;strokeWidth=0;fontSize=16;fillColor=#cdeb8b;strokeColor=#36393d;fontColor=#000000;" vertex="1" parent="1">
                    <mxGeometry x="780" y="240" width="160" height="60" as="geometry"/>
                </mxCell>
                <mxCell id="22" value="return [1, o[7]]" style="shape=parallelogram;perimeter=parallelogramPerimeter;whiteSpace=wrap;html=1;fixedSize=1;strokeWidth=0;fontSize=16;fillColor=#cdeb8b;strokeColor=#36393d;fontColor=#000000;" vertex="1" parent="1">
                    <mxGeometry x="830" y="310" width="200" height="60" as="geometry"/>
                </mxCell>
                <mxCell id="27" value="" style="rounded=1;whiteSpace=wrap;html=1;fillColor=#cdeb8b;strokeColor=#36393d;fontSize=16;labelPosition=center;verticalLabelPosition=middle;align=center;verticalAlign=middle;horizontal=1;" vertex="1" parent="1">
                    <mxGeometry x="255" y="330" width="70" height="110" as="geometry"/>
                </mxCell>
                <mxCell id="28" value="&lt;font style=&quot;font-size: 20px;&quot;&gt;O&lt;/font&gt;" style="text;html=1;strokeColor=none;fillColor=none;align=center;verticalAlign=middle;whiteSpace=wrap;rounded=0;perimeterSpacing=0;strokeWidth=0;" vertex="1" parent="1">
                    <mxGeometry x="212.5" y="330" width="40" height="40" as="geometry"/>
                </mxCell>
                <mxCell id="29" value="o[target-nums[i]] = i" style="shape=process;whiteSpace=wrap;html=1;backgroundOutline=1;strokeWidth=0;fontSize=16;fillColor=#d80073;strokeColor=#A50040;fontColor=#000000;" vertex="1" parent="1">
                    <mxGeometry x="780" y="390" width="190" height="60" as="geometry"/>
                </mxCell>
                <mxCell id="34" value="" style="rounded=1;whiteSpace=wrap;html=1;strokeWidth=4;fontSize=18;fontColor=#000000;fillColor=none;gradientColor=none;" vertex="1" parent="1">
                    <mxGeometry x="120" y="180" width="260" height="300" as="geometry"/>
                </mxCell>
            </root>
        </mxGraphModel>
    </diagram>
</mxfile>